# xmcd
#
# Track frame offsets:
#	183
#	16758
#	28020
#	43845
#	52933
#	69270
#	85145
#	97795
#	106858
#	116983
#	125408
#	139033
#
# Disc length: 2109
#
# Revision: 1
# Processed by: cddbd v1.5.1PL0 Copyright (c) Steve Scherf et al.
# Submitted via: dBpowerAMP V4.0
# Normalized: r0:TDELIM( - )
#
DISCID=92083b0c
DTITLE=Assorted - Country Heroes
DYEAR=1990
DGENRE=Country
TTITLE0=Bobby Bare - Marie Laveaux
TTITLE1=Moe Bandy - It's a Cheatin Situation
TTITLE2=Tom T. Hall - Old Dogs, Children and Watermelon Wine
TTITLE3=Porter Wagoner - Satisfied Mind
TTITLE4=Bellamy Brothers - Redneck Girl
TTITLE5=Earl Thomas Conley - Angel in Disguise
TTITLE6=Faron Young - Four in The Morning
TTITLE7=Johnny Rodriguez - We're Over
TTITLE8=George Jones - The Race is on
TTITLE9=Mel Tillis - Burning Memories
TTITLE10=T.G. Sheppard - I Loved 'Em Every One
TTITLE11=Nitty Gritty dirt Band - Mr Bojangles
EXTD=Country Heroes - MCR Productions - 1990
EXTT0=
EXTT1=
EXTT2=
EXTT3=
EXTT4=
EXTT5=
EXTT6=
EXTT7=
EXTT8=
EXTT9=
EXTT10=
EXTT11=
PLAYORDER=
